<svg width="20" height="21" viewBox="0 0 20 21" fill="none" xmlns="http://www.w3.org/2000/svg">
<g clip-path="url(#clip0_1_8)">
<path d="M10 0.75C8.07163 0.75 6.18657 1.32183 4.58319 2.39317C2.97981 3.46452 1.73013 4.98726 0.992174 6.76884C0.25422 8.55042 0.0611372 10.5108 0.437343 12.4021C0.813549 14.2934 1.74215 16.0307 3.10571 17.3943C4.46927 18.7579 6.20655 19.6865 8.09787 20.0627C9.98918 20.4389 11.9496 20.2458 13.7312 19.5078C15.5127 18.7699 17.0355 17.5202 18.1068 15.9168C19.1782 14.3134 19.75 12.4284 19.75 10.5C19.7474 7.91495 18.7193 5.43654 16.8914 3.60863C15.0635 1.78073 12.585 0.752647 10 0.75ZM10 18.75C8.3683 18.75 6.77325 18.2661 5.41654 17.3596C4.05984 16.4531 3.00242 15.1646 2.37799 13.6571C1.75357 12.1496 1.59019 10.4908 1.90852 8.8905C2.22685 7.29016 3.01259 5.82015 4.16637 4.66637C5.32015 3.51259 6.79016 2.72685 8.3905 2.40852C9.99085 2.09019 11.6496 2.25357 13.1571 2.87799C14.6646 3.50242 15.9531 4.55984 16.8596 5.91655C17.7661 7.27325 18.25 8.8683 18.25 10.5C18.2474 12.6872 17.3773 14.7841 15.8307 16.3307C14.2841 17.8773 12.1872 18.7474 10 18.75Z" fill="#D9D9D9"/>
</g>
<defs>
<clipPath id="clip0_1_8">
<rect width="20" height="21" fill="white"/>
</clipPath>
</defs>
</svg>
